<svg width="225" height="60" viewBox="0 0 225 60" fill="none" xmlns="http://www.w3.org/2000/svg">
<g clip-path="url(#clip0_60_312)">
<mask id="mask0_60_312" style="mask-type:luminance" maskUnits="userSpaceOnUse" x="0" y="0" width="225" height="60">
<path d="M225 0H0V60H225V0Z" fill="white"/>
</mask>
<g mask="url(#mask0_60_312)">
<path d="M94.7079 22.434C91.7524 22.434 89.5418 23.5277 88.4483 25.3367H88.2118V22.9898H82.8094V47.8481H88.2118V39.9679H88.4483C89.5359 41.7769 91.7524 42.8706 94.7079 42.8706C100.252 42.8706 104.65 38.3423 104.65 32.6494C104.65 26.9623 100.252 22.434 94.7079 22.434ZM93.6144 37.9521C90.5998 37.9521 88.2118 35.6051 88.2118 32.6494C88.2118 29.664 90.5998 27.3467 93.6144 27.3467C96.7176 27.3467 99.0759 29.664 99.0759 32.6494C99.0759 35.6348 96.6879 37.9521 93.6144 37.9521Z" fill="white"/>
<path d="M215.543 23.8935C212.453 23.8935 210.034 25.0641 208.562 27.0977H208.32C208.721 23.4206 210.803 21.6352 215.284 20.9968L223.127 19.8619V14.8901L214.763 16.0784C207.038 17.1543 203.331 21.2451 203.331 28.617C203.331 33.9491 203.674 35.634 204.626 37.6498C206.121 40.8834 209.827 42.8698 214.307 42.8698C220.342 42.8698 225 38.5897 225 32.9856C224.994 27.5942 221.147 23.8935 215.543 23.8935ZM214.249 37.9277C211.176 37.9277 208.905 35.829 208.905 32.9856C208.905 30.1125 211.146 28.014 214.249 28.014C217.292 28.014 219.538 30.1125 219.538 32.9856C219.538 35.829 217.264 37.9277 214.249 37.9277Z" fill="white"/>
<path d="M77.1456 17.1519L71.0632 29.4126L62.7763 17.1519H56.316L68.3443 34.8986L68.0134 35.5725C67.4932 36.6484 66.8076 37.2278 65.2236 37.2278H60.9677V42.3354H65.8264C69.5325 42.3354 71.0278 41.3955 72.5766 38.3036L83.2101 17.146H77.1456V17.1519Z" fill="white"/>
<path d="M135.858 23.0126L134.936 35.0252C134.794 36.9051 134.162 37.5908 132.667 37.5908H131.342V42.4796H134.564C138.187 42.4796 139.795 40.8244 140.055 37.3719L140.764 28.0376H147.408V42.3141H152.87V23.0126H135.858Z" fill="white"/>
<path d="M166.95 27.4035C169.161 27.4035 170.916 28.6449 171.75 30.3062L176.579 28.4854C175.231 24.8141 171.407 22.4377 166.838 22.4377C160.714 22.4377 156.092 26.8537 156.092 32.6589C156.092 38.4583 160.72 42.8801 166.838 42.8801C171.407 42.8801 175.231 40.5036 176.579 36.8325L171.75 35.0117C170.916 36.6669 169.161 37.9144 166.95 37.9144C163.877 37.9144 161.66 35.733 161.66 32.6647C161.66 29.5849 163.877 27.4035 166.95 27.4035Z" fill="white"/>
<path d="M193.639 22.9834L185.251 35.256V22.9834H179.849V42.3145H185.825L194.158 30.1305V42.3145H199.562V22.9834H193.639Z" fill="white"/>
<path d="M123.206 25.3294H122.969C121.882 23.5204 119.665 22.4267 116.71 22.4267C111.166 22.4267 106.768 26.955 106.768 32.6479C106.768 38.3349 111.166 42.8691 116.71 42.8691C119.665 42.8691 121.876 41.7756 122.969 39.9666H123.206V42.3135H128.608V22.9824H123.206V25.3294ZM117.809 37.9506C114.736 37.9506 112.348 35.6333 112.348 32.6479C112.348 29.6625 114.706 27.3452 117.809 27.3452C120.824 27.3452 123.212 29.6625 123.212 32.6479C123.206 35.6038 120.824 37.9506 117.809 37.9506Z" fill="white"/>
<path d="M41.088 30.3062C41.088 23.3068 37.2756 17.1528 31.548 13.6472L31.6249 18.4001C35.0295 21.3264 37.1869 25.5827 37.1869 30.3062C37.1869 32.4639 36.7258 34.5212 35.916 36.4011C33.4513 34.0599 31.6958 31.3052 30.6023 28.0537C29.2841 24.1166 28.9768 19.8071 28.9296 14.5398L28.9354 12.2757C27.7532 11.7673 26.5179 11.3653 25.2531 11.0815L25.2589 14.5339C25.383 32.718 28.5336 40.2141 33.2207 45.8477C38.0143 42.2299 41.088 36.6139 41.088 30.3062C41.088 30.312 41.088 30.312 41.088 30.3062Z" fill="white"/>
<path d="M15.835 14.5376L15.8409 11.0852C14.576 11.369 13.3406 11.7709 12.1585 12.2794L12.1644 14.5435C12.1112 19.8049 11.8097 24.1204 10.4916 28.0575C9.40406 31.3087 7.64265 34.0577 5.17785 36.4046C4.36807 34.5248 3.90703 32.4675 3.90703 30.3097C3.90703 25.5804 6.05856 21.33 9.46909 18.4038L9.54592 13.6508C3.81246 17.1505 0 23.3046 0 30.3039V30.3097C0 36.6174 3.07952 42.2334 7.86726 45.8514C12.5663 40.2236 15.7109 32.7217 15.835 14.5376Z" fill="white"/>
<path d="M22.3884 7.57686C21.7206 7.52364 21.1177 7.5 20.5502 7.5C19.9828 7.5 19.3798 7.52364 18.7061 7.57686V11.6618C18.7061 29.5622 18.0145 37.3417 15.3369 49.4252C18.7297 50.2824 22.3354 50.2824 25.734 49.431C23.0741 37.4364 22.3884 29.6567 22.3884 11.6618V7.57686Z" fill="white"/>
</g>
</g>
<defs>
<clipPath id="clip0_60_312">
<rect width="225" height="60" fill="white"/>
</clipPath>
</defs>
</svg>
