<svg width="217" height="42" viewBox="0 0 217 42" fill="none" xmlns="http://www.w3.org/2000/svg">
<path d="M91.3405 14.6862C88.4901 14.6862 86.3581 15.7434 85.3034 17.4921H85.0754V15.2234H79.8651V39.2532H85.0754V31.6356H85.3034C86.3524 33.3843 88.4901 34.4415 91.3405 34.4415C96.6876 34.4415 100.929 30.0642 100.929 24.5611C100.929 19.0636 96.6876 14.6862 91.3405 14.6862ZM90.2859 29.687C87.3785 29.687 85.0754 27.4183 85.0754 24.5611C85.0754 21.6752 87.3785 19.4351 90.2859 19.4351C93.2787 19.4351 95.5532 21.6752 95.5532 24.5611C95.5532 27.4469 93.2502 29.687 90.2859 29.687Z" fill="#3B175C"/>
<path d="M207.879 16.097C204.899 16.097 202.566 17.2286 201.146 19.1944H200.913C201.3 15.6399 203.307 13.9141 207.629 13.2969L215.193 12.1998V7.3938L207.126 8.54242C199.676 9.58247 196.101 13.5369 196.101 20.6631C196.101 25.8175 196.432 27.4462 197.351 29.3948C198.792 32.5207 202.367 34.4408 206.687 34.4408C212.508 34.4408 217 30.3034 217 24.886C216.995 19.6744 213.284 16.097 207.879 16.097ZM206.631 29.6634C203.667 29.6634 201.477 27.6347 201.477 24.886C201.477 22.1087 203.638 20.0802 206.631 20.0802C209.566 20.0802 211.732 22.1087 211.732 24.886C211.732 27.6347 209.539 29.6634 206.631 29.6634Z" fill="#3B175C"/>
<path d="M74.4026 9.58017L68.5366 21.4321L60.5443 9.58017H54.3137L65.9143 26.7353L65.5951 27.3868C65.0935 28.4268 64.4322 28.9868 62.9045 28.9868H58.8V33.9243H63.4859C67.0602 33.9243 68.5024 33.0157 69.9961 30.0268L80.2515 9.57446H74.4026V9.58017Z" fill="#3B175C"/>
<path d="M131.028 15.2455L130.139 26.8577C130.002 28.6749 129.392 29.3377 127.95 29.3377H126.672V34.0636H129.779C133.274 34.0636 134.824 32.4636 135.075 29.1262L135.759 20.103H142.167V33.9036H147.434V15.2455H131.028Z" fill="#3B175C"/>
<path d="M161.014 19.49C163.146 19.49 164.839 20.6901 165.643 22.296L170.3 20.5359C169.001 16.987 165.312 14.6898 160.906 14.6898C155 14.6898 150.542 18.9586 150.542 24.5703C150.542 30.1764 155.006 34.4508 160.906 34.4508C165.312 34.4508 169.001 32.1534 170.3 28.6047L165.643 26.8446C164.839 28.4447 163.146 29.6506 161.014 29.6506C158.05 29.6506 155.912 27.5419 155.912 24.5759C155.912 21.5987 158.05 19.49 161.014 19.49Z" fill="#3B175C"/>
<path d="M186.754 15.2173L178.665 27.0808V15.2173H173.454V33.9039H179.218L187.255 22.1261V33.9039H192.466V15.2173H186.754Z" fill="#3B175C"/>
<path d="M118.825 17.4851H118.597C117.548 15.7364 115.411 14.6791 112.56 14.6791C107.213 14.6791 102.972 19.0565 102.972 24.5596C102.972 30.0571 107.213 34.4401 112.56 34.4401C115.411 34.4401 117.543 33.3831 118.597 31.6344H118.825V33.9031H124.036V15.2164H118.825V17.4851ZM113.62 29.6855C110.656 29.6855 108.353 27.4455 108.353 24.5596C108.353 21.6738 110.628 19.4337 113.62 19.4337C116.528 19.4337 118.831 21.6738 118.831 24.5596C118.825 27.417 116.528 29.6855 113.62 29.6855Z" fill="#3B175C"/>
<path d="M39.6271 22.296C39.6271 15.5299 35.9502 9.581 30.4263 6.19227L30.5004 10.7868C33.784 13.6156 35.8647 17.7299 35.8647 22.296C35.8647 24.3818 35.42 26.3705 34.639 28.1877C32.2619 25.9246 30.5688 23.2617 29.5142 20.1186C28.2429 16.3127 27.9465 12.1469 27.9009 7.05517L27.9066 4.86648C26.7664 4.37504 25.5751 3.98644 24.3552 3.71216L24.3608 7.04946C24.4805 24.6274 27.519 31.8736 32.0395 37.3194C36.6627 33.8222 39.6271 28.3934 39.6271 22.296C39.6271 22.3016 39.6271 22.3016 39.6271 22.296Z" fill="#3B175C"/>
<path d="M15.272 7.053L15.2777 3.7157C14.0577 3.99 12.8663 4.37858 11.7262 4.87004L11.7319 7.05871C11.6806 12.1447 11.3898 16.3164 10.1186 20.1222C9.0697 23.2651 7.37091 25.9224 4.99375 28.1911C4.21277 26.3739 3.76811 24.3852 3.76811 22.2994C3.76811 17.7278 5.84314 13.619 9.13241 10.7903L9.20651 6.19581C3.6769 9.57883 0 15.5277 0 22.2938V22.2994C0 28.3969 2.97002 33.8257 7.58753 37.3231C12.1195 31.8828 15.1523 24.631 15.272 7.053Z" fill="#3B175C"/>
<path d="M21.5924 0.324294C20.9483 0.272855 20.3669 0.25 19.8195 0.25C19.2723 0.25 18.6908 0.272855 18.041 0.324294V4.27304C18.041 21.5768 17.374 29.097 14.7916 40.7777C18.0638 41.6064 21.5412 41.6064 24.819 40.7833C22.2537 29.1886 21.5924 21.6681 21.5924 4.27304V0.324294Z" fill="#3B175C"/>
</svg>
